<?xml version="1.0" encoding="utf-8"?>
<!-- Generator: Adobe Illustrator 18.1.1, SVG Export Plug-In . SVG Version: 6.00 Build 0)  -->
<!DOCTYPE svg PUBLIC "-//W3C//DTD SVG 1.1//EN" "http://www.w3.org/Graphics/SVG/1.1/DTD/svg11.dtd">
<svg version="1.1" id="Layer_1" xmlns="http://www.w3.org/2000/svg" xmlns:xlink="http://www.w3.org/1999/xlink" x="0px" y="0px"
	 viewBox="0 0 46 56.104" enable-background="new 0 0 46 56.104" xml:space="preserve">
<g>
	<g>
		<path fill="#FFFFFF" d="M24.737,0C24.869,0.015,25,0.041,25.133,0.044c2.906,0.048,5.805,0.221,8.692,0.553
			c1.494,0.172,2.979,0.42,4.47,0.618c0.277,0.037,0.271,0.21,0.287,0.401c0.112,1.356,0.391,2.673,0.955,3.918
			c1.133,2.503,3.123,3.958,5.728,4.652c0.222,0.059,0.446,0.111,0.669,0.167c0.018,0.005,0.034,0.017,0.063,0.031
			c0,0.271,0.008,0.547-0.001,0.823c-0.088,2.51-0.143,5.022-0.277,7.529c-0.239,4.474-0.738,8.913-1.793,13.284
			c-1.456,6.03-4.59,11.044-9.037,15.302c-2.787,2.669-5.841,4.991-9.054,7.115c-0.631,0.417-1.254,0.85-1.858,1.306
			c-0.659,0.498-1.246,0.47-1.93-0.01c-1.308-0.92-2.671-1.762-4.004-2.647c-0.262-0.174-0.497-0.39-0.741-0.591
			c-0.311-0.257-0.38-0.58-0.253-0.957c0.094-0.28,0.179-0.563,0.293-0.922c0.212,0.142,0.452,0.248,0.617,0.423
			c1.432,1.512,3.119,2.718,4.744,3.998c0.167,0.132,0.287,0.114,0.456,0.024c2.869-1.542,5.462-3.476,7.95-5.561
			c1.912-1.602,3.773-3.256,5.482-5.078c3.102-3.306,5.179-7.172,6.382-11.528c0.713-2.583,1.187-5.21,1.508-7.867
			c0.556-4.603,0.715-9.229,0.818-13.859c0.005-0.213-0.059-0.3-0.262-0.357c-1.61-0.453-3.08-1.167-4.295-2.343
			c-1.527-1.477-2.279-3.33-2.593-5.391c-0.043-0.284-0.088-0.57-0.102-0.856c-0.01-0.19-0.079-0.264-0.265-0.292
			c-1.45-0.215-2.894-0.476-4.348-0.654c-3.496-0.428-7.011-0.58-10.532-0.566c-4.828,0.019-9.634,0.343-14.409,1.078
			C7.915,1.875,7.906,1.874,7.845,2.459C7.723,3.638,7.477,4.786,7.002,5.877c-1.068,2.455-2.985,3.924-5.492,4.7
			c-0.137,0.042-0.274,0.103-0.415,0.115c-0.346,0.03-0.408,0.217-0.408,0.536c0.003,3.846,0.13,7.687,0.519,11.515
			C1.67,27.302,2.448,31.8,3.902,36.157c0.475,1.424,1.07,2.809,1.611,4.211c0.029,0.076,0.063,0.151,0.095,0.226
			c-0.026,0.013-0.052,0.026-0.078,0.039c-0.465-0.877-0.96-1.739-1.39-2.633c-1.304-2.712-2.109-5.586-2.691-8.528
			c-0.57-2.881-0.927-5.791-1.102-8.721c-0.132-2.219-0.203-4.442-0.303-6.664C0.038,13.917,0.016,13.747,0,13.577
			c0-1.074,0-2.148,0-3.222c0.084-0.018,0.169-0.034,0.253-0.054c3.753-0.897,6.096-3.18,6.856-7.002
			c0.132-0.665,0.198-1.343,0.295-2.024C7.459,1.26,7.522,1.236,7.587,1.226c1.061-0.159,2.12-0.333,3.184-0.47
			C14.15,0.324,17.543,0.1,20.948,0.042C21.041,0.04,21.134,0.015,21.228,0C22.397,0,23.567,0,24.737,0z"/>
		<path fill="#FFFFFF" d="M12.46,43.32c-0.133,0.033-0.265,0.067-0.398,0.1c-0.009-0.015-0.018-0.029-0.027-0.044
			c0.053-0.036,0.12-0.062,0.157-0.11c0.06-0.078,0.102-0.172,0.151-0.259c-0.097-0.004-0.203-0.034-0.291-0.006
			c-0.135,0.043-0.268,0.234-0.373-0.027c0.017-0.028,0.024-0.055,0.037-0.058c0.332-0.092,0.388-0.285,0.33-0.624
			c-0.099-0.574-0.124-1.161-0.172-1.744c-0.052-0.638-0.274-1.211-0.644-1.729c-0.251-0.351-0.529-0.684-0.754-1.051
			c-0.203-0.332-0.371-0.69-0.513-1.053c-0.078-0.201-0.176-0.253-0.333-0.143c-0.259,0.18-0.357,0.074-0.445-0.179
			c-0.072-0.206-0.19-0.396-0.293-0.591c-0.214-0.406-0.432-0.81-0.669-1.256c-0.81,0.155-1.444,0.757-2.24,1.077
			c0.365,0.664,0.705,1.307,1.071,1.934c0.12,0.206,0.167,0.337-0.095,0.442c-0.163,0.065-0.198,0.167-0.105,0.341
			c0.291,0.548,0.616,1.086,0.83,1.664c0.375,1.01,0.934,1.855,1.818,2.489c0.324,0.232,0.588,0.548,0.897,0.804
			c0.094,0.078,0.245,0.098,0.374,0.122c0.089,0.017,0.185-0.005,0.295,0.057c-0.13,0.113-0.259,0.227-0.389,0.34
			c0.016,0.035,0.033,0.071,0.049,0.106c0.184-0.029,0.368-0.058,0.561-0.089c-0.014,0.032-0.017,0.053-0.029,0.063
			c-0.099,0.078-0.337,0.056-0.249,0.271c0.089,0.218,0.242,0.064,0.357,0.006c0.14-0.07,0.204-0.049,0.289,0.097
			c0.117,0.2,0.289,0.367,0.468,0.584c-0.449,0.111-0.854,0.049-1.251-0.017c-1.289-0.213-2.268-0.93-3.067-1.927
			c-0.85-1.062-1.372-2.3-1.876-3.544c-1.41-3.475-2.368-7.082-3.102-10.753c-0.703-3.515-1.053-7.068-1.163-10.648
			c-0.063-2.07-0.133-4.139-0.211-6.208c-0.009-0.232,0.055-0.331,0.28-0.403c1.681-0.534,3.183-1.37,4.389-2.682
			c1.356-1.474,2.064-3.25,2.399-5.198c0.048-0.28,0.021-0.64,0.186-0.812C8.864,2.5,9.226,2.53,9.5,2.487
			c5.331-0.827,10.694-1.085,16.082-0.947c3.261,0.084,6.509,0.327,9.741,0.772c0.598,0.082,1.192,0.193,1.79,0.271
			c0.205,0.027,0.263,0.11,0.284,0.307c0.173,1.568,0.571,3.07,1.391,4.435c1.208,2.011,3.026,3.209,5.221,3.9
			c0.456,0.144,0.467,0.143,0.449,0.607c-0.133,3.429-0.202,6.862-0.423,10.285c-0.258,4.007-0.939,7.949-2.195,11.781
			c-1.374,4.191-3.691,7.785-6.733,10.948c-2.853,2.967-6.079,5.473-9.477,7.772c-0.802,0.542-1.618,1.063-2.422,1.602
			c-0.149,0.1-0.258,0.099-0.409,0c-1.92-1.253-3.558-2.818-5.034-4.559c-0.061-0.072-0.052-0.244-0.018-0.352
			c0.282-0.893,0.591-1.778,0.859-2.676c0.083-0.279,0.087-0.588,0.088-0.883c0.003-1.241-0.8-1.976-2.037-1.828
			c-0.49,0.058-0.969,0.218-1.449,0.345c-0.619,0.164-1.234,0.343-1.851,0.515c-0.167,0.046-0.289,0.002-0.389-0.152
			c-0.083-0.127-0.199-0.232-0.305-0.344c-0.253-0.267-0.442-0.545-0.147-0.92C12.497,43.351,12.478,43.335,12.46,43.32z
			 M23.633,25.321c-0.019-1.092-0.164-2.179-0.726-3.184c-1.182-2.114-4.307-2.183-5.471-0.011
			c-0.108,0.202-0.218,0.406-0.302,0.619c-0.471,1.191-0.504,2.434-0.356,3.679c0.066,0.554,0.218,1.112,0.424,1.631
			c0.344,0.867,0.935,1.549,1.845,1.859c1.482,0.505,3.277,0.13,4.142-1.974C23.529,27.111,23.616,26.237,23.633,25.321z
			 M3.82,26.926c0.073,0.374,0.12,0.714,0.207,1.044c0.4,1.515,1.457,2.261,3.023,2.145c1.358-0.1,2.142-0.715,2.479-1.962
			c0.064-0.239,0.106-0.49,0.115-0.736c0.046-1.363-0.384-2.459-1.83-2.985c-0.324-0.118-0.655-0.216-0.975-0.342
			c-0.329-0.129-0.667-0.25-0.968-0.43c-0.412-0.246-0.5-0.844-0.189-1.176c0.364-0.388,0.839-0.426,1.331-0.354
			c0.446,0.065,0.718,0.337,0.851,0.756c0.054,0.171,0.094,0.347,0.147,0.544c0.477-0.025,0.942-0.049,1.4-0.072
			c0.165-1.293-0.761-2.556-2.013-2.761c-0.31-0.051-0.631-0.067-0.944-0.053c-1.121,0.051-1.91,0.662-2.226,1.716
			c-0.337,1.123-0.088,2.771,1.556,3.413c0.553,0.216,1.121,0.391,1.674,0.608c0.575,0.225,0.77,0.554,0.714,1.131
			c-0.05,0.522-0.437,0.95-0.953,1.054c-0.893,0.181-1.521-0.184-1.8-1.053c-0.069-0.215-0.116-0.437-0.177-0.672
			C4.777,26.801,4.332,26.859,3.82,26.926z M41.645,23.359c0.111-1.315-0.709-2.488-1.916-2.739
			c-0.352-0.073-0.726-0.096-1.085-0.071c-1.055,0.072-1.804,0.588-2.158,1.611c-0.507,1.463,0.117,2.908,1.539,3.515
			c0.554,0.236,1.14,0.395,1.699,0.622c0.698,0.284,0.899,0.993,0.497,1.634c-0.297,0.473-0.756,0.591-1.269,0.572
			c-0.56-0.021-0.971-0.293-1.19-0.808c-0.126-0.296-0.199-0.615-0.305-0.954c-0.45,0.06-0.908,0.12-1.392,0.184
			c0.045,0.285,0.072,0.532,0.123,0.774c0.346,1.65,1.358,2.475,2.958,2.425c1.151-0.036,2.046-0.469,2.49-1.598
			c0.329-0.836,0.333-1.687,0.049-2.533c-0.196-0.586-0.569-1.05-1.131-1.319c-0.422-0.202-0.87-0.349-1.304-0.525
			c-0.381-0.154-0.777-0.283-1.133-0.481c-0.425-0.236-0.524-0.826-0.219-1.17c0.355-0.4,0.832-0.439,1.325-0.373
			c0.444,0.059,0.728,0.319,0.863,0.741c0.057,0.179,0.1,0.363,0.155,0.562C40.714,23.406,41.171,23.383,41.645,23.359z
			 M12.771,18.186c0.479,0,0.899-0.009,1.319,0.004c0.179,0.006,0.252-0.062,0.296-0.227c0.142-0.537,0.305-1.068,0.443-1.606
			c0.048-0.185,0.117-0.268,0.326-0.265c0.776,0.013,1.552,0.011,2.328,0.001c0.188-0.002,0.266,0.064,0.315,0.243
			c0.148,0.545,0.311,1.086,0.483,1.624c0.028,0.087,0.13,0.211,0.202,0.214c0.467,0.019,0.936,0.01,1.445,0.01
			c-0.164-0.536-0.317-1.037-0.471-1.538c-0.753-2.453-1.51-4.904-2.253-7.359c-0.082-0.271-0.186-0.403-0.489-0.371
			c-0.294,0.031-0.594,0.02-0.89,0.002c-0.224-0.014-0.31,0.071-0.373,0.285c-0.694,2.35-1.401,4.697-2.104,7.044
			C13.158,16.879,12.971,17.511,12.771,18.186z M28.421,20.703c0,0.129,0,0.241,0,0.352c0,1.553,0.005,3.106-0.003,4.659
			c-0.002,0.527-0.015,1.055-0.057,1.579c-0.055,0.695-0.446,1.119-1.041,1.18c-0.794,0.082-1.337-0.235-1.533-0.941
			c-0.083-0.3-0.113-0.623-0.115-0.937c-0.013-1.85-0.01-3.7-0.012-5.55c0-0.111,0-0.222,0-0.339c-0.509,0-0.973,0-1.448,0
			c-0.006,0.096-0.015,0.17-0.015,0.245c-0.001,1.61-0.013,3.221,0.006,4.831c0.009,0.717,0.041,1.439,0.134,2.149
			c0.157,1.196,1.001,2.006,2.178,2.141c0.331,0.038,0.671,0.034,1.005,0.014c1.032-0.064,1.825-0.668,2.112-1.661
			c0.132-0.455,0.21-0.94,0.217-1.413c0.031-2.032,0.028-4.064,0.035-6.096c0-0.072-0.018-0.144-0.028-0.214
			C29.374,20.703,28.917,20.703,28.421,20.703z M28.929,14.698c0.144,0,0.248,0.002,0.351,0c0.479-0.009,0.958-0.01,1.436-0.029
			c0.929-0.037,1.581-0.503,1.927-1.351c0.424-1.038,0.419-2.101-0.021-3.131c-0.326-0.764-0.914-1.215-1.781-1.225
			c-1.015-0.012-2.03-0.018-3.045-0.043c-0.256-0.006-0.344,0.058-0.343,0.331c0.01,2.874,0.006,5.747,0.007,8.621
			c0,0.1,0.015,0.2,0.022,0.29c0.499,0,0.962,0,1.447,0C28.929,17.007,28.929,15.879,28.929,14.698z M22.405,18.173
			c0-0.126,0-0.221,0-0.315c0-0.958,0.007-1.916-0.005-2.874c-0.003-0.23,0.071-0.294,0.294-0.29
			c0.498,0.007,0.996-0.005,1.494-0.024c0.954-0.037,1.598-0.526,1.96-1.393c0.336-0.807,0.347-1.645,0.162-2.483
			c-0.268-1.215-0.918-1.78-2.148-1.835c-0.966-0.044-1.935-0.017-2.902-0.039c-0.251-0.006-0.324,0.064-0.324,0.32
			c0.009,2.874,0.006,5.748,0.006,8.622c0,0.101,0.01,0.203,0.015,0.312C21.446,18.173,21.903,18.173,22.405,18.173z M14.895,26.527
			c-0.029,0.116-0.04,0.2-0.07,0.277c-0.142,0.363-0.238,0.758-0.446,1.08c-0.488,0.758-1.465,0.833-2.064,0.158
			c-0.233-0.262-0.411-0.607-0.513-0.944c-0.242-0.796-0.28-1.627-0.181-2.449c0.064-0.535,0.167-1.083,0.367-1.58
			c0.265-0.657,0.858-0.977,1.486-0.91c0.677,0.072,1.035,0.521,1.248,1.12c0.047,0.133,0.084,0.27,0.131,0.425
			c0.482-0.151,0.944-0.295,1.424-0.445c-0.043-0.175-0.068-0.325-0.117-0.467c-0.081-0.235-0.16-0.473-0.269-0.695
			c-0.566-1.162-1.689-1.735-2.966-1.523c-1.178,0.196-1.896,0.952-2.343,1.991c-0.553,1.287-0.592,2.642-0.425,4.01
			c0.121,0.99,0.446,1.9,1.144,2.644c1.324,1.411,3.53,1.141,4.441-0.563c0.227-0.425,0.343-0.91,0.513-1.366
			c0.056-0.152-0.002-0.224-0.146-0.278C15.717,26.862,15.328,26.701,14.895,26.527z M33.944,29.919c0-2.557,0-5.097,0-7.662
			c0.713,0,1.381,0,2.061,0c0-0.535,0-1.043,0-1.548c-1.889,0-3.752,0-5.619,0c0,0.525,0,1.026,0,1.562c0.697,0,1.372,0,2.082,0
			c0,2.568,0,5.103,0,7.649C32.968,29.919,33.433,29.919,33.944,29.919z M21.693,3.965c0.379,0.511,0.753,0.938,0.52,1.592
			c0.498-0.463,0.984-0.419,1.506-0.031c-0.232-0.639,0.136-1.061,0.496-1.557c-0.754,0.186-0.958-0.391-1.306-0.819
			C22.709,3.713,22.41,4.081,21.693,3.965z M27.157,4.06c0.001-0.03,0.002-0.061,0.003-0.091c-0.761,0.26-0.918-0.443-1.346-0.827
			c-0.111,0.695-0.528,0.925-1.17,0.878c0.132,0.172,0.266,0.299,0.404,0.42c0.135,0.118,0.233,0.225,0.159,0.439
			c-0.068,0.197-0.062,0.419-0.095,0.683c0.184-0.083,0.318-0.118,0.421-0.195c0.267-0.199,0.51-0.203,0.774,0.01
			c0.095,0.077,0.24,0.092,0.382,0.142c-0.035-0.332-0.147-0.625-0.068-0.85C26.705,4.433,26.971,4.26,27.157,4.06z M21.308,3.969
			c-0.762,0.19-0.96-0.401-1.313-0.812c-0.197,0.568-0.507,0.919-1.21,0.813c0.446,0.481,0.578,0.978,0.564,1.618
			c0.513-0.567,0.975-0.365,1.451-0.055C20.543,4.882,20.954,4.474,21.308,3.969z"/>
		<path fill="#FFFFFF" d="M8.867,44.989c0.336,0.13,0.668,0.274,1.01,0.387c0.796,0.263,1.599,0.479,2.449,0.262
			c0.269-0.069,0.497,0.047,0.674,0.236c0.307,0.328,0.626,0.652,0.89,1.014c0.563,0.772,1.219,1.45,1.932,2.081
			c0.258,0.228,0.484,0.491,0.733,0.73c0.146,0.14,0.149,0.281,0.091,0.466c-0.151,0.483-0.281,0.973-0.431,1.5
			C13.575,49.663,11.118,47.445,8.867,44.989z"/>
		<path fill="#FFFFFF" d="M13.742,45.454c0.991-0.227,1.929-0.494,2.887-0.645c0.845-0.134,1.058-0.047,1.216,0.959
			c0.057,0.364-0.009,0.768-0.104,1.132c-0.187,0.71-0.434,1.405-0.67,2.151C15.864,47.936,14.759,46.773,13.742,45.454z"/>
		<path fill="#FFFFFF" d="M8.806,35.992c-0.158,0.102-0.298,0.196-0.442,0.285c-0.178,0.109-0.264-0.042-0.336-0.15
			c-0.02-0.03,0.071-0.173,0.141-0.217C8.474,35.719,8.604,35.735,8.806,35.992z"/>
		<path fill="#FFFFFF" d="M7.42,36.316c0.01,0.173,0.064,0.319,0.015,0.406c-0.104,0.182-0.288,0.281-0.51,0.213
			c-0.049-0.015-0.116-0.096-0.11-0.137c0.011-0.076,0.053-0.168,0.113-0.211C7.049,36.5,7.19,36.44,7.42,36.316z"/>
		<path fill="#FFFFFF" d="M22.113,25.196c-0.009,0.805-0.048,1.525-0.373,2.187c-0.337,0.684-0.841,1.135-1.662,1.1
			c-0.554-0.024-0.953-0.31-1.267-0.74c-0.32-0.437-0.467-0.941-0.53-1.47c-0.104-0.872-0.121-1.745,0.145-2.591
			c0.104-0.33,0.269-0.664,0.487-0.931c0.678-0.834,1.901-0.8,2.569,0.042c0.404,0.509,0.534,1.115,0.597,1.741
			C22.103,24.781,22.105,25.03,22.113,25.196z"/>
		<path fill="#FFFFFF" d="M15.357,14.488c0.309-1.104,0.611-2.179,0.912-3.254c0.017,0,0.034-0.001,0.05-0.001
			c0.308,1.077,0.615,2.154,0.93,3.255C16.617,14.488,16.009,14.488,15.357,14.488z"/>
		<path fill="#FFFFFF" d="M28.957,10.557c0.543,0,1.067-0.005,1.591,0.004c0.1,0.002,0.206,0.049,0.298,0.097
			c0.442,0.227,0.659,0.808,0.554,1.46c-0.086,0.535-0.403,0.885-0.93,0.942c-0.492,0.054-0.99,0.052-1.513,0.077
			C28.957,12.253,28.957,11.408,28.957,10.557z"/>
		<path fill="#FFFFFF" d="M22.426,13.079c0-0.846,0-1.691,0-2.518c0.554,0,1.093-0.051,1.618,0.013
			c0.639,0.079,0.991,0.793,0.836,1.556c-0.117,0.576-0.411,0.887-0.994,0.94C23.413,13.113,22.934,13.079,22.426,13.079z"/>
	</g>
</g>
</svg>
