<?xml version="1.0" encoding="utf-8"?>
<!-- Generator: Adobe Illustrator 18.1.1, SVG Export Plug-In . SVG Version: 6.00 Build 0)  -->
<!DOCTYPE svg PUBLIC "-//W3C//DTD SVG 1.1//EN" "http://www.w3.org/Graphics/SVG/1.1/DTD/svg11.dtd">
<svg version="1.1" id="Layer_1" xmlns="http://www.w3.org/2000/svg" xmlns:xlink="http://www.w3.org/1999/xlink" x="0px" y="0px"
	 viewBox="0 0 196.733 72" enable-background="new 0 0 196.733 72" xml:space="preserve">
<g>
	<g>
		<g>
			<text transform="matrix(1 0 0 1 70.3372 43.5992)" fill="#262626" font-family="'ProximaNova-Black'" font-size="45.6623">DeMo</text>
		</g>
		<g>
			<text transform="matrix(1 0 0 1 71.2893 59.2701)" fill="#262626" font-family="'ProximaNova-Semibold'" font-size="19.9972">Entertainment</text>
		</g>
	</g>
	<g>
		<rect x="0.001" y="67.29" fill-rule="evenodd" clip-rule="evenodd" fill="#262626" width="0.002" height="0.002"/>
		
			<rect x="0.087" y="58.923" transform="matrix(-0.6989 0.7152 -0.7152 -0.6989 42.3065 100.0522)" fill-rule="evenodd" clip-rule="evenodd" fill="#262626" width="0.015" height="0.016"/>
		
			<rect x="0.104" y="50.426" transform="matrix(-0.6999 0.7142 -0.7142 -0.6999 36.2137 85.6572)" fill-rule="evenodd" clip-rule="evenodd" fill="#262626" width="0.017" height="0.02"/>
		
			<rect x="0.052" y="42.036" transform="matrix(-0.6977 0.7164 -0.7164 -0.6977 30.2147 71.3323)" fill-rule="evenodd" clip-rule="evenodd" fill="#262626" width="0.01" height="0.011"/>
		
			<rect x="0.052" y="33.725" transform="matrix(-0.6946 0.7194 -0.7194 -0.6946 24.3622 57.1177)" fill-rule="evenodd" clip-rule="evenodd" fill="#262626" width="0.01" height="0.011"/>
		
			<rect x="0.104" y="25.326" transform="matrix(-0.6966 0.7175 -0.7175 -0.6966 18.3687 42.9024)" fill-rule="evenodd" clip-rule="evenodd" fill="#262626" width="0.017" height="0.019"/>
		
			<rect x="0.087" y="16.832" transform="matrix(-0.6922 0.7217 -0.7217 -0.6922 12.3135 28.429)" fill-rule="evenodd" clip-rule="evenodd" fill="#262626" width="0.014" height="0.017"/>
		<rect x="0.001" y="8.478" fill-rule="evenodd" clip-rule="evenodd" fill="#262626" width="0.002" height="0.002"/>
		<rect x="0.001" y="0" fill-rule="evenodd" clip-rule="evenodd" fill="#262626" width="0.002" height="0.002"/>
		<polygon fill-rule="evenodd" clip-rule="evenodd" fill="#262626" points="36.705,45.585 33.256,42.099 36.815,38.496 
			41.088,41.981 		"/>
		<polygon fill-rule="evenodd" clip-rule="evenodd" fill="#262626" points="43.014,40.397 41.295,41.811 37.418,37.886 
			41.295,33.961 43.014,35.375 45.859,37.886 		"/>
		<polygon fill-rule="evenodd" clip-rule="evenodd" fill="#262626" points="41.088,33.79 36.815,37.275 33.256,33.672 
			36.705,30.186 		"/>
		<polygon fill-rule="evenodd" clip-rule="evenodd" fill="#262626" points="30.887,25.401 27.672,28.018 24.966,25.278 
			27.554,22.66 		"/>
		<polygon fill-rule="evenodd" clip-rule="evenodd" fill="#262626" points="32.19,26.473 35.966,29.578 32.231,32.634 
			29.166,29.531 		"/>
		<polygon fill-rule="evenodd" clip-rule="evenodd" fill="#262626" points="30.931,33.699 27.624,36.405 24.995,33.747 
			27.672,31.041 		"/>
		<polygon fill-rule="evenodd" clip-rule="evenodd" fill="#262626" points="32.204,34.737 36.066,37.886 32.204,41.035 
			29.089,37.886 		"/>
		<polygon fill-rule="evenodd" clip-rule="evenodd" fill="#262626" points="30.931,42.072 27.672,44.73 24.995,42.024 
			27.624,39.366 		"/>
		<polygon fill-rule="evenodd" clip-rule="evenodd" fill="#262626" points="32.231,43.137 35.966,46.193 32.19,49.298 
			29.166,46.241 		"/>
		<polygon fill-rule="evenodd" clip-rule="evenodd" fill="#262626" points="30.887,50.37 27.554,53.111 24.966,50.493 
			27.672,47.753 		"/>
		<polygon fill-rule="evenodd" clip-rule="evenodd" fill="#262626" points="20.549,16.899 18.419,18.65 16.624,16.833 
			18.341,15.083 		"/>
		<polygon fill-rule="evenodd" clip-rule="evenodd" fill="#262626" points="22.911,18.841 25.702,21.136 23.028,23.316 
			20.762,21.022 		"/>
		<polygon fill-rule="evenodd" clip-rule="evenodd" fill="#262626" points="20.613,25.285 18.406,27.086 16.592,25.253 
			18.366,23.453 		"/>
		<polygon fill-rule="evenodd" clip-rule="evenodd" fill="#262626" points="23.02,27.248 25.816,29.528 23.049,31.78 20.793,29.5 		
			"/>
		<polygon fill-rule="evenodd" clip-rule="evenodd" fill="#262626" points="20.696,33.695 18.513,35.472 16.701,33.64 
			18.458,31.863 		"/>
		<polygon fill-rule="evenodd" clip-rule="evenodd" fill="#262626" points="23.1,35.662 25.816,37.886 23.1,40.109 20.901,37.886 		
			"/>
		<polygon fill-rule="evenodd" clip-rule="evenodd" fill="#262626" points="20.696,42.076 18.458,43.909 16.701,42.131 
			18.513,40.299 		"/>
		<polygon fill-rule="evenodd" clip-rule="evenodd" fill="#262626" points="23.049,43.991 25.816,46.243 23.02,48.524 
			20.793,46.271 		"/>
		<polygon fill-rule="evenodd" clip-rule="evenodd" fill="#262626" points="20.613,50.486 18.366,52.318 16.592,50.518 
			18.406,48.685 		"/>
		<polygon fill-rule="evenodd" clip-rule="evenodd" fill="#262626" points="23.028,52.455 25.702,54.635 22.911,56.93 
			20.762,54.749 		"/>
		<polygon fill-rule="evenodd" clip-rule="evenodd" fill="#262626" points="20.549,58.872 18.341,60.689 16.624,58.938 
			18.419,57.122 		"/>
		<polygon fill-rule="evenodd" clip-rule="evenodd" fill="#262626" points="10.297,8.467 9.228,9.345 8.322,8.427 9.182,7.55 		"/>
		<polygon fill-rule="evenodd" clip-rule="evenodd" fill="#262626" points="13.811,11.357 15.437,12.695 13.84,14.014 
			12.518,12.675 		"/>
		<polygon fill-rule="evenodd" clip-rule="evenodd" fill="#262626" points="10.337,16.906 9.235,17.815 8.352,16.922 9.243,16.014 
					"/>
		<polygon fill-rule="evenodd" clip-rule="evenodd" fill="#262626" points="13.79,19.722 15.458,21.082 13.808,22.438 
			12.461,21.077 		"/>
		<polygon fill-rule="evenodd" clip-rule="evenodd" fill="#262626" points="10.382,25.252 9.291,26.149 8.385,25.233 9.263,24.337 
					"/>
		<polygon fill-rule="evenodd" clip-rule="evenodd" fill="#262626" points="13.82,28.066 15.508,29.448 13.873,30.781 12.506,29.4 
					"/>
		<polygon fill-rule="evenodd" clip-rule="evenodd" fill="#262626" points="10.349,33.655 9.227,34.57 8.318,33.65 9.219,32.736 		
			"/>
		<polygon fill-rule="evenodd" clip-rule="evenodd" fill="#262626" points="13.861,36.513 15.547,37.886 13.861,39.258 
			12.504,37.886 		"/>
		<polygon fill-rule="evenodd" clip-rule="evenodd" fill="#262626" points="10.349,42.116 9.219,43.036 8.318,42.121 9.227,41.201 
					"/>
		<polygon fill-rule="evenodd" clip-rule="evenodd" fill="#262626" points="13.873,44.99 15.508,46.323 13.82,47.705 12.506,46.372 
					"/>
		<polygon fill-rule="evenodd" clip-rule="evenodd" fill="#262626" points="10.382,50.519 9.263,51.435 8.385,50.539 9.291,49.622 
					"/>
		<polygon fill-rule="evenodd" clip-rule="evenodd" fill="#262626" points="13.808,53.333 15.458,54.689 13.79,56.049 
			12.461,54.694 		"/>
		<polygon fill-rule="evenodd" clip-rule="evenodd" fill="#262626" points="10.337,58.866 9.243,59.758 8.352,58.849 9.235,57.956 
					"/>
		<polygon fill-rule="evenodd" clip-rule="evenodd" fill="#262626" points="13.84,61.757 15.437,63.076 13.811,64.414 
			12.518,63.096 		"/>
		<polygon fill-rule="evenodd" clip-rule="evenodd" fill="#262626" points="10.297,67.304 9.182,68.221 8.322,67.344 9.228,66.426 
					"/>
		<polygon fill-rule="evenodd" clip-rule="evenodd" fill="#262626" points="4.587,3.771 5.15,4.235 4.616,4.675 4.158,4.211 		"/>
		<polygon fill-rule="evenodd" clip-rule="evenodd" fill="#262626" points="4.6,12.228 5.162,12.686 4.61,13.14 4.156,12.681 		"/>
		<polygon fill-rule="evenodd" clip-rule="evenodd" fill="#262626" points="4.724,20.621 5.283,21.078 4.728,21.536 4.275,21.078 		
			"/>
		<polygon fill-rule="evenodd" clip-rule="evenodd" fill="#262626" points="4.663,29.027 5.228,29.487 4.663,29.952 4.207,29.491 		
			"/>
		<polygon fill-rule="evenodd" clip-rule="evenodd" fill="#262626" points="4.597,37.426 5.161,37.886 4.597,38.345 4.144,37.886 		
			"/>
		<polygon fill-rule="evenodd" clip-rule="evenodd" fill="#262626" points="4.663,45.819 5.228,46.284 4.663,46.744 4.207,46.28 		
			"/>
		<polygon fill-rule="evenodd" clip-rule="evenodd" fill="#262626" points="4.728,54.235 5.283,54.693 4.724,55.151 4.275,54.693 		
			"/>
		<polygon fill-rule="evenodd" clip-rule="evenodd" fill="#262626" points="4.61,62.631 5.162,63.085 4.6,63.543 4.156,63.09 		"/>
		<polygon fill-rule="evenodd" clip-rule="evenodd" fill="#262626" points="4.616,71.096 5.151,71.537 4.587,72 4.158,71.56 		"/>
	</g>
</g>
</svg>
