<?xml version="1.0" encoding="utf-8"?>
<!-- Generator: Adobe Illustrator 19.1.0, SVG Export Plug-In . SVG Version: 6.00 Build 0)  -->
<!DOCTYPE svg PUBLIC "-//W3C//DTD SVG 1.1//EN" "http://www.w3.org/Graphics/SVG/1.1/DTD/svg11.dtd">
<svg version="1.1" id="Layer_1" xmlns="http://www.w3.org/2000/svg" xmlns:xlink="http://www.w3.org/1999/xlink" x="0px" y="0px"
	 viewBox="0 0 548.356 45.306" style="enable-background:new 0 0 548.356 45.306;" xml:space="preserve">
<style type="text/css">
	.st0{opacity:0.25;fill:#162737;}
	.st1{fill:none;stroke:#231F20;}
	.st2{fill:none;stroke:#231F20;stroke-width:0.5;}
	.st3{fill:#162737;}
	.st4{fill:#0E9FB4;stroke:#231F20;stroke-width:0.5;}
	.st5{fill:#939598;}
	.st6{fill:#C9E1C1;stroke:#231F20;stroke-width:0.5;}
	.st7{fill:none;}
	.st8{fill:#0D9FB4;}
	.st9{fill:url(#SVGID_1_);}
	.st10{fill:#FFFFFF;}
	.st11{clip-path:url(#SVGID_3_);}
	.st12{fill:none;stroke:#2E292B;stroke-width:0.25;stroke-miterlimit:10;}
	.st13{opacity:0.75;fill:#FFFFFF;stroke:#00AEEF;stroke-miterlimit:10;}
	.st14{fill:#FF00FF;}
	.st15{fill:#0E9FB4;}
	.st16{fill:url(#SVGID_4_);}
	.st17{fill:none;stroke:#231F20;stroke-miterlimit:10;}
	.st18{fill:#241F21;}
	.st19{fill:#F2F2F2;}
	.st20{fill:url(#SVGID_5_);}
	.st21{fill:#C7C7C9;}
	.st22{fill:#636366;}
	.st23{fill:url(#SVGID_6_);}
	.st24{fill:#2E292B;}
	.st25{fill:url(#SVGID_7_);}
	.st26{fill:#DCDFE1;}
	.st27{fill:url(#SVGID_8_);}
	.st28{fill:url(#SVGID_9_);}
	.st29{fill:url(#SVGID_10_);}
	.st30{fill:url(#SVGID_11_);}
	.st31{fill:url(#SVGID_12_);}
	.st32{fill:url(#SVGID_13_);}
	.st33{fill:url(#SVGID_14_);}
	.st34{fill:url(#SVGID_15_);}
	.st35{fill:url(#SVGID_16_);}
	.st36{fill:url(#SVGID_17_);}
	.st37{fill:url(#SVGID_18_);}
	.st38{fill:url(#SVGID_19_);}
	.st39{fill:url(#SVGID_20_);}
	.st40{fill:url(#SVGID_21_);}
	.st41{fill:url(#SVGID_22_);}
</style>
<g>
	<g>
		<g>
			<g>
				<path class="st3" d="M46.883,44.803L64.442,0.278h7.024l17.496,44.525h-9.156l-4.076-11.1H60.115l-4.076,11.1H46.883z
					 M67.954,9.622L61.557,27.62h12.605L67.954,9.622z"/>
				<path class="st3" d="M85.594,0.278l12.041,33.676L109.55,0.278h9.093l-17.371,44.525h-7.274L76.501,0.278H85.594z"/>
				<path class="st3" d="M120.625,44.803V0.341h8.653v44.462H120.625z"/>
				<path class="st3" d="M142.47,16.269v28.533h-8.654V0.278h6.711l23.203,29.223V0.341h8.654v44.462h-7.024L142.47,16.269z"/>
				<g>
					<polygon class="st3" points="9.281,0.31 0,0.31 0,44.834 8.654,44.834 8.654,15.36 14.226,26.017 18.478,18.004 					"/>
					<polygon class="st3" points="36.309,15.36 36.309,44.834 44.964,44.834 44.964,0.31 					"/>
					<linearGradient id="SVGID_1_" gradientUnits="userSpaceOnUse" x1="20.7274" y1="37.526" x2="35.5237" y2="-3.1263">
						<stop  offset="0.0053" style="stop-color:#0D9FB4"/>
						<stop  offset="0.4331" style="stop-color:#0D9DB2"/>
						<stop  offset="0.5872" style="stop-color:#0E97AB"/>
						<stop  offset="0.697" style="stop-color:#0E8BA0"/>
						<stop  offset="0.7858" style="stop-color:#107B8F"/>
						<stop  offset="0.8619" style="stop-color:#116679"/>
						<stop  offset="0.9291" style="stop-color:#134C5D"/>
						<stop  offset="0.9885" style="stop-color:#152E3E"/>
						<stop  offset="1" style="stop-color:#162737"/>
					</linearGradient>
					<polygon class="st9" points="35.745,0.31 22.45,25.645 18.478,18.004 14.226,26.017 20.13,37.309 24.833,37.309 36.309,15.36 
						44.964,0.31 					"/>
				</g>
			</g>
		</g>
	</g>
	<g>
		<path class="st15" d="M179.931,44.866V0.376h5.647v44.49H179.931z"/>
		<path class="st15" d="M195.555,10.855v34.011h-5.647V0.313h4.393l27.609,34.701V0.376h5.647v44.49h-4.769L195.555,10.855z"/>
		<path class="st15" d="M237.659,10.855v34.011h-5.647V0.313h4.393l27.609,34.701V0.376h5.647v44.49h-4.769L237.659,10.855z"/>
		<path class="st15" d="M294.805,45.18c-3.138,0-5.992-0.638-8.565-1.914c-2.572-1.275-4.779-2.97-6.62-5.083
			c-1.841-2.112-3.263-4.527-4.267-7.248c-1.004-2.719-1.507-5.5-1.507-8.346c0-2.97,0.534-5.814,1.601-8.534
			c1.066-2.719,2.541-5.124,4.424-7.216c1.883-2.091,4.11-3.754,6.683-4.989C289.126,0.618,291.918,0,294.931,0
			c3.137,0,5.981,0.659,8.533,1.977s4.748,3.043,6.589,5.177c1.841,2.134,3.264,4.549,4.268,7.248s1.506,5.45,1.506,8.252
			c0,2.971-0.533,5.815-1.601,8.534c-1.066,2.72-2.531,5.114-4.393,7.185s-4.078,3.724-6.651,4.957
			C300.609,44.563,297.816,45.18,294.805,45.18z M279.557,22.59c0,2.259,0.365,4.446,1.098,6.558
			c0.731,2.113,1.767,3.984,3.106,5.616c1.338,1.631,2.949,2.928,4.832,3.89c1.882,0.963,3.974,1.443,6.274,1.443
			c2.385,0,4.519-0.512,6.4-1.537c1.883-1.025,3.483-2.363,4.801-4.016c1.317-1.652,2.321-3.524,3.012-5.616
			c0.69-2.091,1.035-4.204,1.035-6.338c0-2.259-0.366-4.444-1.098-6.557c-0.732-2.112-1.778-3.974-3.138-5.585
			c-1.359-1.61-2.971-2.896-4.832-3.859c-1.861-0.962-3.922-1.443-6.181-1.443c-2.384,0-4.518,0.502-6.4,1.506
			s-3.482,2.322-4.8,3.953c-1.318,1.632-2.333,3.494-3.044,5.585C279.911,18.282,279.557,20.415,279.557,22.59z"/>
		<path class="st15" d="M319.778,0.313l14.747,37.462l14.683-37.462h5.962l-18.197,44.553h-4.895L313.817,0.313H319.778z"/>
		<path class="st15" d="M344.126,44.866l18.323-44.553h4.644l18.26,44.553h-6.024l-5.271-13.052h-18.699l-5.209,13.052H344.126z
			 M364.77,6.84l-8.283,20.582h16.315L364.77,6.84z"/>
		<path class="st15" d="M413.081,5.333h-15.374v39.533h-5.647V5.333h-15.373v-5.02h36.395V5.333z"/>
		<path class="st15" d="M417.098,44.866V0.376h5.647v44.49H417.098z"/>
		<path class="st15" d="M447.856,45.18c-3.138,0-5.992-0.638-8.565-1.914c-2.572-1.275-4.779-2.97-6.62-5.083
			c-1.841-2.112-3.263-4.527-4.267-7.248c-1.004-2.719-1.507-5.5-1.507-8.346c0-2.97,0.534-5.814,1.601-8.534
			c1.066-2.719,2.541-5.124,4.424-7.216c1.883-2.091,4.11-3.754,6.683-4.989C442.178,0.618,444.97,0,447.982,0
			c3.137,0,5.981,0.659,8.533,1.977s4.748,3.043,6.589,5.177c1.841,2.134,3.264,4.549,4.268,7.248s1.506,5.45,1.506,8.252
			c0,2.971-0.533,5.815-1.601,8.534c-1.066,2.72-2.531,5.114-4.393,7.185s-4.078,3.724-6.651,4.957
			C453.661,44.563,450.868,45.18,447.856,45.18z M432.608,22.59c0,2.259,0.365,4.446,1.098,6.558
			c0.731,2.113,1.767,3.984,3.106,5.616c1.338,1.631,2.949,2.928,4.832,3.89c1.882,0.963,3.974,1.443,6.274,1.443
			c2.385,0,4.519-0.512,6.4-1.537c1.883-1.025,3.483-2.363,4.801-4.016c1.317-1.652,2.321-3.524,3.012-5.616
			c0.69-2.091,1.035-4.204,1.035-6.338c0-2.259-0.366-4.444-1.098-6.557c-0.732-2.112-1.778-3.974-3.138-5.585
			c-1.359-1.61-2.971-2.896-4.832-3.859c-1.861-0.962-3.922-1.443-6.181-1.443c-2.384,0-4.518,0.502-6.4,1.506
			s-3.482,2.322-4.8,3.953c-1.318,1.632-2.333,3.494-3.044,5.585C432.963,18.282,432.608,20.415,432.608,22.59z"/>
		<path class="st15" d="M478.572,10.855v34.011h-5.647V0.313h4.393l27.609,34.701V0.376h5.647v44.49h-4.769L478.572,10.855z"/>
		<path class="st15" d="M543.713,9.664c-0.502-0.585-1.172-1.15-2.008-1.694c-0.838-0.543-1.778-1.036-2.824-1.475
			c-1.046-0.439-2.187-0.794-3.42-1.067c-1.234-0.271-2.521-0.408-3.858-0.408c-3.474,0-6.015,0.649-7.624,1.945
			c-1.611,1.297-2.416,3.075-2.416,5.333c0,1.214,0.229,2.218,0.689,3.012c0.46,0.795,1.182,1.475,2.165,2.039
			c0.982,0.565,2.206,1.057,3.671,1.475c1.464,0.418,3.2,0.858,5.209,1.317c2.3,0.502,4.381,1.078,6.243,1.726
			c1.861,0.649,3.451,1.454,4.769,2.416c1.318,0.963,2.322,2.133,3.013,3.514c0.69,1.38,1.035,3.075,1.035,5.083
			c0,2.134-0.419,3.985-1.255,5.554c-0.838,1.568-1.977,2.866-3.42,3.89c-1.443,1.026-3.148,1.779-5.114,2.259
			c-1.967,0.48-4.101,0.722-6.4,0.722c-3.431,0-6.683-0.534-9.758-1.6c-3.074-1.067-5.867-2.625-8.377-4.675l2.698-4.769
			c0.669,0.712,1.537,1.423,2.604,2.134c1.066,0.712,2.279,1.349,3.639,1.914c1.359,0.565,2.824,1.026,4.393,1.381
			c1.569,0.356,3.21,0.533,4.926,0.533c3.179,0,5.647-0.564,7.405-1.694c1.757-1.129,2.635-2.824,2.635-5.083
			c0-1.255-0.282-2.311-0.847-3.169c-0.564-0.857-1.392-1.6-2.479-2.228c-1.089-0.627-2.438-1.182-4.048-1.663
			c-1.61-0.48-3.441-0.973-5.49-1.475c-2.259-0.543-4.246-1.129-5.961-1.757c-1.716-0.627-3.148-1.38-4.299-2.259
			c-1.151-0.878-2.019-1.945-2.604-3.2c-0.586-1.255-0.878-2.761-0.878-4.518c0-2.133,0.396-4.016,1.192-5.647
			c0.794-1.631,1.902-3.012,3.325-4.141c1.422-1.13,3.116-1.977,5.083-2.542c1.966-0.565,4.1-0.847,6.4-0.847
			c3.012,0,5.731,0.461,8.157,1.38c2.426,0.921,4.581,2.155,6.464,3.702L543.713,9.664z"/>
	</g>
</g>
</svg>
