<?xml version="1.0" encoding="utf-8"?>
<!-- Generator: Adobe Illustrator 19.1.0, SVG Export Plug-In . SVG Version: 6.00 Build 0)  -->
<!DOCTYPE svg PUBLIC "-//W3C//DTD SVG 1.1//EN" "http://www.w3.org/Graphics/SVG/1.1/DTD/svg11.dtd">
<svg version="1.1" id="Layer_1" xmlns="http://www.w3.org/2000/svg" xmlns:xlink="http://www.w3.org/1999/xlink" x="0px" y="0px"
	 viewBox="0 0 420.331 45.18" style="enable-background:new 0 0 420.331 45.18;" xml:space="preserve">
<style type="text/css">
	.st0{opacity:0.25;fill:#162737;}
	.st1{fill:none;stroke:#231F20;}
	.st2{fill:none;stroke:#231F20;stroke-width:0.5;}
	.st3{fill:#162737;}
	.st4{fill:#0E9FB4;stroke:#231F20;stroke-width:0.5;}
	.st5{fill:#939598;}
	.st6{fill:#C9E1C1;stroke:#231F20;stroke-width:0.5;}
	.st7{fill:none;}
	.st8{fill:#0D9FB4;}
	.st9{fill:url(#SVGID_1_);}
	.st10{fill:#FFFFFF;}
	.st11{clip-path:url(#SVGID_3_);}
	.st12{fill:none;stroke:#2E292B;stroke-width:0.25;stroke-miterlimit:10;}
	.st13{opacity:0.75;fill:#FFFFFF;stroke:#00AEEF;stroke-miterlimit:10;}
	.st14{fill:#FF00FF;}
	.st15{fill:#0E9FB4;}
	.st16{fill:url(#SVGID_4_);}
	.st17{fill:none;stroke:#231F20;stroke-miterlimit:10;}
	.st18{fill:#241F21;}
	.st19{fill:#F2F2F2;}
	.st20{fill:url(#SVGID_5_);}
	.st21{fill:#C7C7C9;}
	.st22{fill:#636366;}
	.st23{fill:url(#SVGID_6_);}
	.st24{fill:#2E292B;}
	.st25{fill:url(#SVGID_7_);}
	.st26{fill:#DCDFE1;}
	.st27{fill:url(#SVGID_8_);}
	.st28{fill:url(#SVGID_9_);}
	.st29{fill:url(#SVGID_10_);}
	.st30{fill:url(#SVGID_11_);}
	.st31{fill:url(#SVGID_12_);}
	.st32{fill:url(#SVGID_13_);}
	.st33{fill:url(#SVGID_14_);}
	.st34{fill:url(#SVGID_15_);}
	.st35{fill:url(#SVGID_16_);}
	.st36{fill:url(#SVGID_17_);}
	.st37{fill:url(#SVGID_18_);}
	.st38{fill:url(#SVGID_19_);}
	.st39{fill:url(#SVGID_20_);}
	.st40{fill:url(#SVGID_21_);}
	.st41{fill:url(#SVGID_22_);}
</style>
<g>
	<g>
		<g>
			<g>
				<path class="st3" d="M46.883,44.803L64.442,0.278h7.024l17.496,44.525h-9.156l-4.076-11.1H60.115l-4.076,11.1H46.883z
					 M67.954,9.622L61.557,27.62h12.605L67.954,9.622z"/>
				<path class="st3" d="M85.594,0.278l12.041,33.676L109.55,0.278h9.093l-17.371,44.525h-7.274L76.501,0.278H85.594z"/>
				<path class="st3" d="M120.625,44.803V0.341h8.653v44.462H120.625z"/>
				<path class="st3" d="M142.47,16.269v28.533h-8.654V0.278h6.711l23.203,29.223V0.341h8.654v44.462h-7.024L142.47,16.269z"/>
				<g>
					<polygon class="st3" points="9.281,0.31 0,0.31 0,44.834 8.654,44.834 8.654,15.36 14.226,26.017 18.478,18.004 					"/>
					<polygon class="st3" points="36.309,15.36 36.309,44.834 44.964,44.834 44.964,0.31 					"/>
					<linearGradient id="SVGID_1_" gradientUnits="userSpaceOnUse" x1="20.7274" y1="37.526" x2="35.5237" y2="-3.1263">
						<stop  offset="0.0053" style="stop-color:#0D9FB4"/>
						<stop  offset="0.4331" style="stop-color:#0D9DB2"/>
						<stop  offset="0.5872" style="stop-color:#0E97AB"/>
						<stop  offset="0.697" style="stop-color:#0E8BA0"/>
						<stop  offset="0.7858" style="stop-color:#107B8F"/>
						<stop  offset="0.8619" style="stop-color:#116679"/>
						<stop  offset="0.9291" style="stop-color:#134C5D"/>
						<stop  offset="0.9885" style="stop-color:#152E3E"/>
						<stop  offset="1" style="stop-color:#162737"/>
					</linearGradient>
					<polygon class="st9" points="35.745,0.31 22.45,25.645 18.478,18.004 14.226,26.017 20.13,37.309 24.833,37.309 36.309,15.36 
						44.964,0.31 					"/>
				</g>
			</g>
		</g>
		<g>
			<path class="st3" d="M411.081,1.195h-2.807v7.22h-1.032v-7.22h-2.807V0.278h6.647V1.195z"/>
			<path class="st3" d="M419.299,8.415V2.124l-2.704,4.825h-0.585l-2.716-4.825v6.291h-1.031V0.278h1.089l2.945,5.284l2.956-5.284
				h1.078v8.137H419.299z"/>
		</g>
	</g>
	<g>
		<path class="st15" d="M211.494,38.842c-3.934,4.226-8.451,6.338-13.555,6.338c-2.971,0-5.721-0.648-8.251-1.945
			c-2.532-1.296-4.718-3.001-6.558-5.114c-1.842-2.112-3.295-4.528-4.361-7.248c-1.066-2.719-1.601-5.522-1.601-8.409
			c0-3.012,0.523-5.867,1.569-8.565c1.045-2.698,2.488-5.083,4.33-7.153c1.84-2.071,4.036-3.712,6.588-4.926
			c2.552-1.213,5.313-1.82,8.283-1.82c4.309,0,7.854,0.9,10.637,2.698c2.781,1.799,4.904,4.142,6.369,7.028l-4.33,3.012
			c-1.34-2.593-3.117-4.518-5.334-5.773c-2.218-1.255-4.706-1.883-7.467-1.883c-2.259,0-4.31,0.492-6.149,1.475
			c-1.842,0.983-3.41,2.281-4.707,3.891c-1.297,1.611-2.301,3.473-3.012,5.585c-0.712,2.113-1.066,4.298-1.066,6.557
			c0,2.385,0.396,4.634,1.192,6.746c0.794,2.113,1.882,3.975,3.263,5.585c1.381,1.611,3.012,2.876,4.895,3.796
			c1.883,0.92,3.932,1.38,6.149,1.38c4.853,0,9.225-2.342,13.115-7.028V26.92h-9.602v-4.267h14.37v22.213h-4.769V38.842z"/>
		<path class="st15" d="M222.098,44.866V0.313h5.647v39.533h24.849v5.02H222.098z"/>
		<path class="st15" d="M271.67,45.18c-3.138,0-5.992-0.638-8.565-1.914c-2.572-1.275-4.779-2.97-6.62-5.083
			c-1.841-2.112-3.263-4.527-4.267-7.248c-1.004-2.719-1.507-5.5-1.507-8.346c0-2.97,0.534-5.814,1.601-8.534
			c1.066-2.719,2.541-5.124,4.424-7.216c1.883-2.091,4.11-3.754,6.683-4.989C265.991,0.618,268.783,0,271.796,0
			c3.137,0,5.981,0.659,8.533,1.977s4.748,3.043,6.589,5.177c1.841,2.134,3.264,4.549,4.268,7.248s1.506,5.45,1.506,8.252
			c0,2.971-0.533,5.815-1.601,8.534c-1.066,2.72-2.531,5.114-4.393,7.185s-4.078,3.724-6.651,4.957
			C277.475,44.563,274.682,45.18,271.67,45.18z M256.422,22.59c0,2.259,0.365,4.446,1.098,6.558
			c0.731,2.113,1.767,3.984,3.106,5.616c1.338,1.631,2.949,2.928,4.832,3.89c1.882,0.963,3.974,1.443,6.274,1.443
			c2.385,0,4.519-0.512,6.4-1.537c1.883-1.025,3.483-2.363,4.801-4.016c1.317-1.652,2.321-3.524,3.012-5.616
			c0.69-2.091,1.035-4.204,1.035-6.338c0-2.259-0.366-4.444-1.098-6.557c-0.732-2.112-1.778-3.974-3.138-5.585
			c-1.359-1.61-2.971-2.896-4.832-3.859c-1.861-0.962-3.922-1.443-6.181-1.443c-2.384,0-4.518,0.502-6.4,1.506
			s-3.482,2.322-4.8,3.953c-1.318,1.632-2.333,3.494-3.044,5.585C256.776,18.282,256.422,20.415,256.422,22.59z"/>
		<path class="st15" d="M331.03,33.383c0,1.716-0.345,3.285-1.035,4.707c-0.69,1.422-1.632,2.635-2.823,3.639
			c-1.192,1.004-2.573,1.779-4.142,2.322c-1.569,0.544-3.254,0.816-5.052,0.816h-21.146V0.313h22.15
			c1.547,0,2.949,0.335,4.204,1.004c1.255,0.669,2.322,1.537,3.2,2.604c0.879,1.067,1.559,2.281,2.04,3.64
			c0.48,1.36,0.722,2.729,0.722,4.11c0,2.218-0.556,4.267-1.663,6.149c-1.109,1.883-2.688,3.285-4.738,4.205
			c2.552,0.753,4.57,2.144,6.056,4.173C330.287,28.228,331.03,30.622,331.03,33.383z M302.479,5.208V20.08h14.182
			c1.004,0,1.924-0.198,2.761-0.596c0.836-0.397,1.558-0.931,2.165-1.6c0.605-0.669,1.087-1.453,1.443-2.353
			c0.354-0.899,0.533-1.851,0.533-2.855c0-1.045-0.168-2.028-0.502-2.949c-0.336-0.919-0.784-1.715-1.35-2.384
			c-0.564-0.669-1.255-1.192-2.07-1.569c-0.816-0.376-1.685-0.565-2.604-0.565H302.479z M325.32,32.379
			c0-1.004-0.179-1.977-0.533-2.918c-0.356-0.941-0.838-1.767-1.443-2.479c-0.607-0.711-1.329-1.275-2.165-1.694
			c-0.837-0.417-1.757-0.627-2.761-0.627h-15.938v15.311h15.499c1.045,0,2.008-0.209,2.887-0.627
			c0.878-0.417,1.652-0.973,2.321-1.663c0.669-0.69,1.192-1.495,1.569-2.416C325.132,34.346,325.32,33.383,325.32,32.379z"/>
		<path class="st15" d="M330.968,44.866l18.323-44.553h4.644l18.26,44.553h-6.024l-5.271-13.052H342.2l-5.209,13.052H330.968z
			 M351.612,6.84l-8.283,20.582h16.315L351.612,6.84z"/>
		<path class="st15" d="M376.022,44.866V0.313h5.647v39.533h24.849v5.02H376.022z"/>
	</g>
</g>
</svg>
