<?xml version="1.0" encoding="utf-8"?>
<!-- Generator: Adobe Illustrator 19.1.0, SVG Export Plug-In . SVG Version: 6.00 Build 0)  -->
<!DOCTYPE svg PUBLIC "-//W3C//DTD SVG 1.1//EN" "http://www.w3.org/Graphics/SVG/1.1/DTD/svg11.dtd">
<svg version="1.1" id="Layer_1" xmlns="http://www.w3.org/2000/svg" xmlns:xlink="http://www.w3.org/1999/xlink" x="0px" y="0px"
	 viewBox="0 0 482.594 45.306" style="enable-background:new 0 0 482.594 45.306;" xml:space="preserve">
<style type="text/css">
	.st0{opacity:0.25;fill:#162737;}
	.st1{fill:none;stroke:#231F20;}
	.st2{fill:none;stroke:#231F20;stroke-width:0.5;}
	.st3{fill:#162737;}
	.st4{fill:#0E9FB4;stroke:#231F20;stroke-width:0.5;}
	.st5{fill:#939598;}
	.st6{fill:#C9E1C1;stroke:#231F20;stroke-width:0.5;}
	.st7{fill:none;}
	.st8{fill:#0D9FB4;}
	.st9{fill:url(#SVGID_1_);}
	.st10{fill:#FFFFFF;}
	.st11{clip-path:url(#SVGID_3_);}
	.st12{fill:none;stroke:#2E292B;stroke-width:0.25;stroke-miterlimit:10;}
	.st13{opacity:0.75;fill:#FFFFFF;stroke:#00AEEF;stroke-miterlimit:10;}
	.st14{fill:#FF00FF;}
	.st15{fill:#0E9FB4;}
	.st16{fill:url(#SVGID_4_);}
	.st17{fill:none;stroke:#231F20;stroke-miterlimit:10;}
	.st18{fill:#241F21;}
	.st19{fill:#F2F2F2;}
	.st20{fill:url(#SVGID_5_);}
	.st21{fill:#C7C7C9;}
	.st22{fill:#636366;}
	.st23{fill:url(#SVGID_6_);}
	.st24{fill:#2E292B;}
	.st25{fill:url(#SVGID_7_);}
	.st26{fill:#DCDFE1;}
	.st27{fill:url(#SVGID_8_);}
	.st28{fill:url(#SVGID_9_);}
	.st29{fill:url(#SVGID_10_);}
	.st30{fill:url(#SVGID_11_);}
	.st31{fill:url(#SVGID_12_);}
	.st32{fill:url(#SVGID_13_);}
	.st33{fill:url(#SVGID_14_);}
	.st34{fill:url(#SVGID_15_);}
	.st35{fill:url(#SVGID_16_);}
	.st36{fill:url(#SVGID_17_);}
	.st37{fill:url(#SVGID_18_);}
	.st38{fill:url(#SVGID_19_);}
	.st39{fill:url(#SVGID_20_);}
	.st40{fill:url(#SVGID_21_);}
	.st41{fill:url(#SVGID_22_);}
</style>
<g>
	<g>
		<g>
			<g>
				<path class="st3" d="M46.883,44.803L64.442,0.278h7.024l17.496,44.525h-9.156l-4.076-11.1H60.115l-4.076,11.1H46.883z
					 M67.954,9.622L61.557,27.62h12.605L67.954,9.622z"/>
				<path class="st3" d="M85.594,0.278l12.041,33.676L109.55,0.278h9.093l-17.371,44.525h-7.274L76.501,0.278H85.594z"/>
				<path class="st3" d="M120.625,44.803V0.341h8.653v44.462H120.625z"/>
				<path class="st3" d="M142.47,16.269v28.533h-8.654V0.278h6.711l23.203,29.223V0.341h8.654v44.462h-7.024L142.47,16.269z"/>
				<g>
					<polygon class="st3" points="9.281,0.31 0,0.31 0,44.834 8.654,44.834 8.654,15.36 14.226,26.017 18.478,18.004 					"/>
					<polygon class="st3" points="36.309,15.36 36.309,44.834 44.964,44.834 44.964,0.31 					"/>
					<linearGradient id="SVGID_1_" gradientUnits="userSpaceOnUse" x1="20.7274" y1="37.526" x2="35.5237" y2="-3.1263">
						<stop  offset="0.0053" style="stop-color:#0D9FB4"/>
						<stop  offset="0.4331" style="stop-color:#0D9DB2"/>
						<stop  offset="0.5872" style="stop-color:#0E97AB"/>
						<stop  offset="0.697" style="stop-color:#0E8BA0"/>
						<stop  offset="0.7858" style="stop-color:#107B8F"/>
						<stop  offset="0.8619" style="stop-color:#116679"/>
						<stop  offset="0.9291" style="stop-color:#134C5D"/>
						<stop  offset="0.9885" style="stop-color:#152E3E"/>
						<stop  offset="1" style="stop-color:#162737"/>
					</linearGradient>
					<polygon class="st9" points="35.745,0.31 22.45,25.645 18.478,18.004 14.226,26.017 20.13,37.309 24.833,37.309 36.309,15.36 
						44.964,0.31 					"/>
				</g>
			</g>
		</g>
	</g>
	<g>
		<path class="st15" d="M179.931,44.866V0.313h19.076c1.966,0,3.774,0.408,5.428,1.224c1.651,0.816,3.074,1.904,4.267,3.263
			c1.192,1.36,2.123,2.887,2.793,4.581c0.668,1.694,1.004,3.42,1.004,5.177c0,1.548-0.22,3.043-0.659,4.486
			c-0.439,1.443-1.066,2.751-1.883,3.922c-0.815,1.172-1.799,2.176-2.949,3.012c-1.15,0.837-2.438,1.443-3.859,1.82l10.794,17.068
			h-6.401l-10.165-16.001h-11.797v16.001H179.931z M185.578,23.845h13.491c1.171,0,2.228-0.251,3.169-0.753s1.746-1.181,2.416-2.039
			c0.668-0.857,1.191-1.851,1.568-2.981c0.377-1.129,0.564-2.3,0.564-3.514c0-1.255-0.22-2.437-0.658-3.545
			c-0.439-1.108-1.026-2.091-1.758-2.949c-0.732-0.857-1.59-1.527-2.572-2.008c-0.983-0.48-2.019-0.722-3.106-0.722h-13.114V23.845z
			"/>
		<path class="st15" d="M248.351,39.846v5.02h-30.245V0.313h29.681v5.02h-24.033v14.433h20.896v4.707h-20.896v15.374H248.351z"/>
		<path class="st15" d="M281.044,9.664c-0.502-0.585-1.172-1.15-2.008-1.694c-0.838-0.543-1.778-1.036-2.824-1.475
			c-1.046-0.439-2.187-0.794-3.42-1.067c-1.234-0.271-2.521-0.408-3.858-0.408c-3.474,0-6.015,0.649-7.624,1.945
			c-1.611,1.297-2.416,3.075-2.416,5.333c0,1.214,0.229,2.218,0.689,3.012c0.46,0.795,1.182,1.475,2.165,2.039
			c0.982,0.565,2.206,1.057,3.671,1.475c1.464,0.418,3.2,0.858,5.209,1.317c2.3,0.502,4.381,1.078,6.243,1.726
			c1.861,0.649,3.451,1.454,4.769,2.416c1.318,0.963,2.322,2.133,3.013,3.514c0.69,1.38,1.035,3.075,1.035,5.083
			c0,2.134-0.419,3.985-1.255,5.554c-0.838,1.568-1.977,2.866-3.42,3.89c-1.443,1.026-3.148,1.779-5.114,2.259
			c-1.967,0.48-4.101,0.722-6.4,0.722c-3.431,0-6.683-0.534-9.758-1.6c-3.074-1.067-5.867-2.625-8.377-4.675l2.698-4.769
			c0.669,0.712,1.537,1.423,2.605,2.134c1.066,0.712,2.279,1.349,3.639,1.914c1.359,0.565,2.824,1.026,4.393,1.381
			c1.569,0.356,3.21,0.533,4.926,0.533c3.179,0,5.647-0.564,7.405-1.694c1.757-1.129,2.635-2.824,2.635-5.083
			c0-1.255-0.282-2.311-0.847-3.169c-0.564-0.857-1.392-1.6-2.479-2.228c-1.089-0.627-2.438-1.182-4.048-1.663
			c-1.61-0.48-3.441-0.973-5.49-1.475c-2.259-0.543-4.246-1.129-5.961-1.757c-1.716-0.627-3.148-1.38-4.299-2.259
			c-1.151-0.878-2.019-1.945-2.605-3.2c-0.586-1.255-0.878-2.761-0.878-4.518c0-2.133,0.396-4.016,1.192-5.647
			c0.794-1.631,1.902-3.012,3.325-4.141c1.422-1.13,3.116-1.977,5.083-2.542c1.966-0.565,4.1-0.847,6.4-0.847
			c3.012,0,5.731,0.461,8.157,1.38c2.426,0.921,4.581,2.155,6.464,3.702L281.044,9.664z"/>
		<path class="st15" d="M321.015,39.846v5.02h-30.245V0.313h29.681v5.02h-24.033v14.433h20.896v4.707h-20.896v15.374H321.015z"/>
		<path class="st15" d="M323.587,44.866L341.91,0.313h4.644l18.26,44.553h-6.024l-5.271-13.052h-18.699l-5.209,13.052H323.587z
			 M344.231,6.84l-8.283,20.582h16.315L344.231,6.84z"/>
		<path class="st15" d="M368.14,44.866V0.313h19.076c1.966,0,3.774,0.408,5.428,1.224c1.651,0.816,3.074,1.904,4.267,3.263
			c1.192,1.36,2.123,2.887,2.793,4.581c0.668,1.694,1.004,3.42,1.004,5.177c0,1.548-0.22,3.043-0.659,4.486
			c-0.439,1.443-1.066,2.751-1.883,3.922c-0.815,1.172-1.799,2.176-2.949,3.012c-1.15,0.837-2.438,1.443-3.859,1.82l10.794,17.068
			h-6.401l-10.165-16.001h-11.797v16.001H368.14z M373.787,23.845h13.491c1.171,0,2.228-0.251,3.169-0.753s1.746-1.181,2.416-2.039
			c0.668-0.857,1.191-1.851,1.568-2.981c0.377-1.129,0.564-2.3,0.564-3.514c0-1.255-0.22-2.437-0.658-3.545
			c-0.439-1.108-1.026-2.091-1.758-2.949c-0.732-0.857-1.59-1.527-2.572-2.008c-0.983-0.48-2.019-0.722-3.106-0.722h-13.114V23.845z
			"/>
		<path class="st15" d="M403.905,22.276c0-2.677,0.471-5.344,1.412-8.001c0.941-2.656,2.321-5.041,4.142-7.153
			c1.819-2.112,4.047-3.817,6.683-5.114c2.636-1.296,5.626-1.945,8.974-1.945c3.974,0,7.383,0.9,10.228,2.698
			c2.845,1.799,4.958,4.142,6.338,7.028l-4.455,2.886c-0.67-1.421-1.475-2.614-2.416-3.577c-0.941-0.962-1.967-1.735-3.074-2.322
			c-1.109-0.585-2.249-1.004-3.42-1.255c-1.172-0.251-2.322-0.376-3.451-0.376c-2.469,0-4.654,0.513-6.558,1.537
			c-1.904,1.026-3.504,2.364-4.801,4.016c-1.297,1.653-2.27,3.514-2.917,5.585c-0.649,2.071-0.973,4.152-0.973,6.244
			c0,2.343,0.386,4.571,1.16,6.683c0.773,2.113,1.852,3.985,3.231,5.616c1.381,1.631,3.013,2.929,4.895,3.891
			c1.883,0.963,3.932,1.443,6.15,1.443c1.17,0,2.373-0.146,3.607-0.439c1.233-0.292,2.416-0.763,3.546-1.412
			c1.129-0.648,2.186-1.463,3.169-2.447c0.982-0.982,1.788-2.165,2.415-3.545l4.707,2.573c-0.712,1.673-1.705,3.148-2.98,4.424
			c-1.277,1.276-2.721,2.353-4.33,3.231c-1.611,0.878-3.316,1.548-5.114,2.008c-1.799,0.46-3.557,0.69-5.271,0.69
			c-3.054,0-5.856-0.668-8.408-2.008c-2.552-1.338-4.759-3.084-6.62-5.24c-1.861-2.154-3.305-4.602-4.329-7.342
			C404.417,27.914,403.905,25.122,403.905,22.276z"/>
		<path class="st15" d="M482.594,0.313v44.553h-5.647V24.598h-24.535v20.268h-5.647V0.313h5.647v19.265h24.535V0.313H482.594z"/>
	</g>
</g>
</svg>
